<?xml version="1.0" encoding="utf-8"?>
<!-- Generator: Adobe Illustrator 25.2.0, SVG Export Plug-In . SVG Version: 6.00 Build 0)  -->
<svg version="1.1" id="Layer_1" xmlns="http://www.w3.org/2000/svg" xmlns:xlink="http://www.w3.org/1999/xlink" x="0px" y="0px"
	 viewBox="0 0 1200 600" style="enable-background:new 0 0 1200 600;" xml:space="preserve">
<style type="text/css">
	.st0{fill:#F3BC7B;}
	.st1{fill:#FFFFFF;stroke:#3C4043;stroke-linecap:round;stroke-linejoin:round;stroke-miterlimit:10;}
	.st2{fill-rule:evenodd;clip-rule:evenodd;fill:#FFFFFF;stroke:#3D4043;stroke-linecap:round;stroke-linejoin:round;}
	.st3{fill:#F0F2F3;}
	.st4{fill:#FFFFFF;stroke:#3C4043;}
	.st5{fill:none;stroke:#3C4043;stroke-linecap:round;stroke-linejoin:round;stroke-miterlimit:10;}
	.st6{fill-rule:evenodd;clip-rule:evenodd;fill:#3183FB;}
	.st7{fill-rule:evenodd;clip-rule:evenodd;fill:#FC2C25;}
	.st8{fill-rule:evenodd;clip-rule:evenodd;fill:#FFB900;}
	.st9{fill-rule:evenodd;clip-rule:evenodd;fill:#00AB47;}
	.st10{fill:#FFFFFF;stroke:#3B4043;stroke-linecap:round;stroke-linejoin:round;stroke-miterlimit:10;}
	.st11{fill:none;stroke:#D0E1FA;stroke-miterlimit:10;}
	.st12{fill:none;stroke:#3C4043;stroke-linecap:round;stroke-miterlimit:10;}
	.st13{fill:none;stroke:#3C4043;stroke-width:2;stroke-linecap:round;stroke-linejoin:round;stroke-miterlimit:10;}
	.st14{fill:#FFFFFF;stroke:#3C4043;stroke-linecap:round;stroke-miterlimit:10;}
	.st15{fill:none;stroke:#4285F4;stroke-width:2;stroke-linecap:round;stroke-miterlimit:10;}
	.st16{fill:none;stroke:#34A853;stroke-miterlimit:10;}
	.st17{fill:#FFB900;stroke:#FFB900;stroke-linecap:round;stroke-linejoin:round;stroke-miterlimit:10;}
	.st18{fill:#F0F2F3;stroke:#F0F2F3;stroke-miterlimit:10;}
	.st19{fill:#FFFFFF;stroke:#3D4043;stroke-linecap:round;stroke-linejoin:round;}
	.st20{fill:#FFFFFF;}
	.st21{fill:#F0F2F3;stroke:#F0F2F3;stroke-linecap:round;stroke-linejoin:round;stroke-miterlimit:10;}
	.st22{fill:none;stroke:#3D4043;stroke-linecap:round;stroke-linejoin:round;}
	.st23{fill:#3D4043;}
	.st24{fill:#FF9400;}
	.st25{fill:#EB8A38;}
	.st26{fill:#FFB900;}
	.st27{fill:#3D4043;stroke:#3D4043;stroke-linecap:round;stroke-linejoin:round;stroke-miterlimit:10;}
	.st28{fill:#00AC45;}
	.st29{fill:#3B4043;}
	.st30{fill:#E7E9EC;}
	.st31{fill:#CEE2FF;}
	.st32{fill:#3183FB;}
	.st33{fill:#D2E3FC;}
	.st34{fill:#3C4043;stroke:#3C4043;stroke-linecap:round;stroke-linejoin:round;stroke-miterlimit:10;}
	.st35{fill:none;stroke:#FFFFFF;stroke-linecap:round;stroke-linejoin:round;stroke-miterlimit:10;}
	.st36{fill:none;stroke:#FFFFFF;stroke-linecap:round;stroke-miterlimit:10;}
	.st37{fill:#202124;}
	.st38{fill:#3183FB;stroke:#3183FB;stroke-miterlimit:10;}
	.st39{fill:#8AB4F8;}
	.st40{fill:none;stroke:#3C4043;stroke-miterlimit:10;}
	.st41{fill:#FFB900;stroke:#FFB900;stroke-linecap:round;stroke-linejoin:round;}
	.st42{fill:#3C4043;}
	.st43{fill:#5E6369;stroke:#5E6369;stroke-miterlimit:10;}
	.st44{fill:#FC2C25;}
	.st45{fill:none;stroke:#45494C;stroke-linecap:round;stroke-linejoin:round;stroke-miterlimit:10;}
	.st46{fill:#FFE186;}
	.st47{fill:#FC2C25;stroke:#FC2C25;stroke-linecap:round;stroke-linejoin:round;stroke-miterlimit:10;}
	.st48{fill:#FFFFFF;stroke:#3D4043;stroke-linecap:round;stroke-linejoin:round;stroke-miterlimit:10;}
	.st49{fill:none;stroke:#3D4043;stroke-linecap:round;stroke-linejoin:round;stroke-miterlimit:10;}
	.st50{fill:#FFFFFF;stroke:#FFFFFF;stroke-linecap:round;stroke-linejoin:round;stroke-miterlimit:10;}
</style>
<g>
	<path class="st0" d="M143,155c0,0,4-8.1,4-8.2c0-0.1-1.8-1.5-1.8-1.5l-12.1,7l-0.5,8.3c0,0,8.5,0.9,8.6,0.7
		C141.2,161,143,155,143,155z"/>
	<g>
		<g>
			<g>
				<path class="st1" d="M876.6,178V53.4H304.4v403.9h572.2v-95.8V178z"/>
				<path class="st2" d="M296.1,433.2h530.4V207H296.1V433.2z"/>
				<rect x="315" y="227.2" class="st3" width="145.6" height="188.4"/>
				<path class="st4" d="M344.1,72.5c0,3.4-2.7,6.1-6.1,6.1s-6.1-2.7-6.1-6.1s2.7-6.1,6.1-6.1C341.4,66.3,344.1,69.1,344.1,72.5z"/>
				<path class="st4" d="M374,72.5c0,3.4-2.7,6.1-6.1,6.1s-6.1-2.7-6.1-6.1s2.7-6.1,6.1-6.1S374,69.1,374,72.5z"/>
				<path class="st5" d="M305,90.3h376.9"/>
				<g>
					<g>
						<g>
							<path class="st6" d="M344.5,114.7c1.4,0,2.7,0,4.1,0c0.2,0,0.1,0,0.2,0.2c0.1,0.6,0.1,1.2,0.1,1.8c-0.1,1.3-0.3,2.6-0.9,3.7
								c-0.7,1.3-1.7,2.3-2.9,3.1c-0.6,0.4-1.2,0.6-1.9,0.9c-0.4,0.2-0.9,0.2-1.4,0.3c-0.6,0.1-1.1,0.1-1.7,0.1
								c-0.9,0-1.7-0.2-2.6-0.4c-1.4-0.5-2.7-1.2-3.8-2.3c-1.3-1.3-2.2-2.9-2.6-4.7c-0.2-0.8-0.2-1.5-0.2-2.3
								c0.1-1.8,0.7-3.4,1.7-4.9c0.9-1.3,2.1-2.2,3.5-2.9c0.8-0.4,1.7-0.7,2.6-0.8c0.6-0.1,1.1-0.1,1.7-0.1c2.3,0.1,4.3,0.9,6,2.3
								l0,0v0.1l0,0c-0.5,0.5-1.1,1.1-1.6,1.6l0,0c-0.1,0.1-0.1,0.1-0.1,0c-0.9-0.8-1.9-1.3-3-1.5c-0.7-0.1-1.3-0.2-2-0.1
								c-1,0.1-2,0.4-2.8,0.9c-1.6,1-2.7,2.4-3.1,4.3c-0.1,0.5-0.2,1-0.1,1.6c0.1,2.2,1,4,2.8,5.3c0.8,0.6,1.7,1,2.7,1.1
								c0.6,0.1,1.3,0.1,1.9,0.1c1.1-0.1,2.2-0.5,3.1-1.2c1.1-0.8,1.8-1.9,2-3.3c0-0.1,0-0.3,0-0.4s0-0.1-0.1-0.1
								c-0.2,0-0.5,0-0.7,0c-0.9,0-1.9,0-2.8,0c-0.7,0-1.5,0-2.2,0c-0.1,0-0.1,0-0.1-0.1c0-0.7,0-1.5,0-2.2c0-0.2,0-0.1,0.1-0.1
								c1,0,2,0,3.1,0C343.8,114.7,344.1,114.7,344.5,114.7z"/>
						</g>
					</g>
					<g>
						<g>
							<path class="st6" d="M384.3,123.4c-0.1,0-0.1,0.1-0.2,0.1c-0.6,0.5-1.2,0.8-1.9,1c-0.8,0.2-1.7,0.2-2.5,0
								c-0.7-0.2-1.3-0.5-1.8-0.9c-0.4-0.3-0.7-0.6-1-1c-0.6-0.7-1-1.5-1.3-2.4c-0.2-0.6-0.2-1.2-0.2-1.8c0-0.8,0.3-1.5,0.6-2.2
								c0.7-1.3,1.7-2.4,3-3c0.6-0.3,1.3-0.5,2-0.5s1.4,0.2,2,0.5c0.4,0.2,0.8,0.5,1.2,0.8l0.1,0.1V114c0-0.2,0-0.5,0-0.7
								c0-0.1,0-0.1,0.1-0.1c0.7,0,1.5,0,2.2,0c0,0,0,0,0.1,0c0,0,0.1,0,0.1,0.1v0.1c0,3.7,0,7.4,0,11c0,1.3-0.4,2.5-1.2,3.5
								c-0.5,0.7-1.2,1.2-2,1.6c-0.2,0.1-0.5,0.1-0.7,0.2c-0.7,0.2-1.4,0.2-2.1,0.2c-1.2-0.1-2.3-0.4-3.3-1.2
								c-0.5-0.4-0.9-1-1.3-1.6c-0.1-0.2-0.2-0.4-0.3-0.6c0,0,0,0,0.1-0.1c0.7-0.3,1.4-0.6,2.1-0.9c0.1,0,0.1,0,0.1,0
								c0.2,0.5,0.5,0.9,0.9,1.2c0.4,0.4,0.8,0.6,1.3,0.7c0.1,0,0.3,0,0.4,0c0.4,0,0.9,0,1.3-0.1c1-0.3,1.6-0.9,1.9-1.8
								c0.1-0.4,0.2-0.8,0.2-1.2c0-0.3,0-0.7,0-1C384.3,123.5,384.3,123.5,384.3,123.4z M378.1,118.8c0,0.2,0,0.5,0.1,0.7
								c0.2,0.9,0.6,1.7,1.3,2.2c0.9,0.7,1.9,0.9,3,0.5c0.8-0.3,1.3-0.8,1.7-1.6c0.4-0.8,0.6-1.7,0.4-2.6s-0.6-1.6-1.3-2.1
								c-0.8-0.6-1.6-0.8-2.6-0.6c-0.7,0.2-1.3,0.6-1.7,1.1C378.4,117.2,378.1,118,378.1,118.8z"/>
						</g>
					</g>
					<g>
						<g>
							<path class="st7" d="M355.5,124.8c-3.3,0-6-2.7-6-6s2.7-6,6-6s6,2.7,6,6C361.5,122.2,358.8,124.8,355.5,124.8z M355.4,122.5
								c1,0,1.9-0.3,2.5-1c0.8-0.8,1.1-1.8,1.1-2.9c-0.1-0.9-0.4-1.6-0.9-2.2c-0.6-0.6-1.3-1-2.2-1.1c-0.9-0.1-1.8,0.2-2.4,0.8
								c-0.7,0.6-1.1,1.4-1.2,2.3s0.1,1.8,0.6,2.5C353.5,121.9,354.4,122.4,355.4,122.5z"/>
						</g>
					</g>
					<g>
						<g>
							<path class="st8" d="M368.4,124.8c-3.3,0-6-2.7-6-6c0-3.2,2.6-6,6-6c3.3,0,6,2.7,6,6C374.4,122.2,371.7,124.8,368.4,124.8z
								 M371.8,118.8c0-0.2,0-0.3,0-0.5c-0.1-0.8-0.5-1.5-1.1-2.1c-0.8-0.7-1.7-1.1-2.8-0.9c-0.8,0.1-1.4,0.5-1.9,1.1
								c-0.7,0.8-1,1.8-0.9,2.9c0.1,1,0.5,1.8,1.3,2.5c0.7,0.6,1.6,0.8,2.6,0.7c0.7-0.1,1.3-0.4,1.8-0.9
								C371.5,120.8,371.8,119.9,371.8,118.8z"/>
						</g>
					</g>
					<g>
						<g>
							<path class="st7" d="M401,120.7c0.6,0.4,1.3,0.9,1.9,1.3v0.1c-0.8,1.2-1.9,2-3.4,2.4c-2.3,0.6-4.6-0.2-6-2.1
								c-0.6-0.8-1-1.8-1.2-2.8c-0.3-2.3,0.7-4.6,2.7-5.9c0.5-0.3,1.1-0.6,1.7-0.7c1.1-0.2,2.1-0.1,3.1,0.3c0.8,0.3,1.4,0.9,1.9,1.6
								s0.9,1.4,1.2,2.2c0,0.1,0.1,0.1,0.1,0.2s-0.1,0.1-0.2,0.1c-2.5,1.1-5,2.1-7.5,3.1c-0.2,0.1-0.2,0-0.1,0.3
								c0.3,0.6,0.8,1.1,1.4,1.4c0.4,0.2,0.7,0.2,1.1,0.2c0.6,0,1.2-0.1,1.7-0.4C400.2,121.7,400.7,121.3,401,120.7
								C401,120.8,401,120.8,401,120.7z M394.8,118.6c1.8-0.7,3.5-1.5,5.3-2.2c0-0.1-0.1-0.2-0.1-0.2c-0.5-0.7-1.2-1-2-1
								c-0.5,0-1,0.1-1.5,0.4c-0.4,0.2-0.7,0.4-0.9,0.7c-0.3,0.4-0.5,0.8-0.6,1.3C394.8,117.9,394.8,118.3,394.8,118.6z"/>
						</g>
					</g>
					<g>
						<g>
							<path class="st9" d="M391.1,115.7c0,2.8,0,5.7,0,8.5c0,0,0,0,0,0.1c0,0.2,0,0.2-0.2,0.2c-0.8,0-1.5,0-2.3,0
								c-0.2,0-0.1,0-0.1-0.1c0-5.7,0-11.4,0-17.1l0,0c0-0.1,0-0.1,0.1-0.1c0.8,0,1.6,0,2.4,0c0.1,0,0.1,0,0.1,0.1
								c0,0.2,0,0.4,0,0.6C391.1,110.4,391.1,113,391.1,115.7z"/>
						</g>
					</g>
				</g>
				<path class="st10" d="M800.6,128h-371c-3.9,0-7.1-3.2-7.1-7.1v-3.5c0-3.9,3.2-7.1,7.1-7.1h371c3.9,0,7.1,3.2,7.1,7.1v3.5
					C807.7,124.8,804.5,128,800.6,128z"/>
				<line class="st5" x1="439" y1="119.5" x2="519.7" y2="119.5"/>
				<line class="st5" x1="422.5" y1="149" x2="472.5" y2="149"/>
				<line class="st5" x1="501.6" y1="149" x2="551.6" y2="149"/>
				<line class="st11" x1="581.5" y1="149" x2="644" y2="149"/>
				<line class="st5" x1="672.6" y1="149" x2="722.7" y2="149"/>
				<line class="st5" x1="753.2" y1="149" x2="803.2" y2="149"/>
				<line class="st5" x1="361" y1="178" x2="523.4" y2="178"/>
				<g>
					<rect x="483.2" y="227.2" class="st12" width="145.6" height="188.4"/>
					<line class="st13" x1="504.6" y1="364.2" x2="607.4" y2="364.2"/>
					<line class="st5" x1="504.6" y1="381.3" x2="579.5" y2="381.3"/>
					<line class="st5" x1="504.6" y1="392.5" x2="545.3" y2="392.5"/>
				</g>
				<g>
					<rect x="651.3" y="227.2" class="st12" width="145.6" height="188.4"/>
					<line class="st13" x1="672.7" y1="364.2" x2="775.5" y2="364.2"/>
					<line class="st5" x1="672.7" y1="381.3" x2="747.6" y2="381.3"/>
					<line class="st5" x1="672.7" y1="392.5" x2="713.4" y2="392.5"/>
				</g>
				<g>
					<g>
						<rect x="204.5" y="196.3" class="st14" width="223.3" height="289"/>
						<line class="st15" x1="237.4" y1="406.5" x2="395" y2="406.5"/>
						<line class="st16" x1="271" y1="427.5" x2="385.9" y2="427.5"/>
						<line class="st5" x1="237.4" y1="447.2" x2="299.8" y2="447.2"/>
					</g>
					<rect x="237.4" y="423.2" class="st17" width="23.8" height="8.5"/>
					<g>
						<circle class="st17" cx="241.9" cy="464" r="4.5"/>
						<circle class="st17" cx="256" cy="464" r="4.5"/>
						<circle class="st17" cx="270.1" cy="464" r="4.5"/>
						<circle class="st17" cx="284.2" cy="464" r="4.5"/>
						<circle class="st18" cx="298.3" cy="464" r="4.5"/>
					</g>
				</g>
			</g>
			<g>
				<g>
					<path class="st19" d="M522.5,257.3v76.3c0,0.8,0.7,1.5,1.5,1.5h64.8c0.8,0,1.5-0.7,1.5-1.5v-76.3c0-0.8-0.7-1.5-1.5-1.5H524
						C523.2,255.8,522.5,256.5,522.5,257.3z"/>
					<path class="st3" d="M533.5,324.8h45.9c1.7,0,3-1.3,3-3v-19.2c0-1.7-1.3-3-3-3h-45.9c-1.7,0-3,1.3-3,3v19.2
						C530.5,323.4,531.8,324.8,533.5,324.8z"/>
					<path class="st20" d="M524.9,251.8c0,0,0.5,1.9,1.3,2.7c0.2,0.2,0.3,0.3,0.5,0.3h59.8c0.2,0,0.4-0.1,0.5-0.3
						c0.7-0.7,1.3-2.7,1.3-2.7H524.9z"/>
					<g id="color_1_">
						<path class="st21" d="M522.4,255.9v0.1v19.2h5.2v-2.8c0-1.4,1-2.6,2.3-2.8c1.6-0.2,2.9,1.1,2.9,2.6v8.2c0,1.2,0.8,2.4,2,2.7
							c0.7,0.2,1.4,0,2-0.3c0.8-0.5,1.3-1.3,1.3-2.2v-5.1c0-1.4,1-2.6,2.3-2.8c1.6-0.2,2.9,1.1,2.9,2.6v4.4c0,1.2,0.8,2.4,2,2.7
							c0.7,0.2,1.4,0,1.9-0.3c0.7-0.5,1.3-1.3,1.3-2.2v-1.5c0-1.4,1-2.6,2.3-2.8c1.6-0.2,2.9,1.1,2.9,2.6v0.6c0,1.2,0.8,2.4,2,2.7
							c0.7,0.2,1.4,0,1.9-0.3c0.7-0.5,1.3-1.3,1.3-2.2v-5.5c0-1.4,1-2.6,2.3-2.8c1.6-0.2,2.9,1.1,2.9,2.6v7.1c0,1.2,0.8,2.4,2,2.7
							c0.7,0.2,1.4,0,1.9-0.3c0.7-0.5,1.3-1.3,1.3-2.2v-11.2c0-1.4,1-2.6,2.3-2.7c1.6-0.2,2.9,1.1,2.9,2.6v1c0,1.4,1,2.7,2.4,2.8
							c0.6,0,1.1-0.1,1.5-0.4c0.7-0.5,1.3-1.3,1.3-2.2v-4.4c0-1.4,1-2.6,2.3-2.7c1.6-0.2,2.9,1,2.9,2.5c0,0,0,0,0,0.1v10.4h5.2
							v-20.2c0-0.3-0.1-0.5-0.3-0.8c-0.3-0.4-0.9-0.7-1.5-0.7h-64.4c-0.9,0-1.7,0.6-1.8,1.4C522.4,255.8,522.4,255.9,522.4,255.9z"
							/>
						<path class="st3" d="M574.8,276.5c0.1,1.3,1.2,2.3,2.5,2.3c0.5,0,0.9-0.1,1.3-0.4c0.7-0.4,1.1-1.1,1.2-2
							c-0.1-1.3-1.2-2.3-2.5-2.3c-0.5,0-0.9,0.1-1.3,0.4C575.3,274.9,574.9,275.7,574.8,276.5z"/>
						<path class="st3" d="M543.5,286c0.1,1.3,1.2,2.3,2.5,2.3c0.5,0,0.9-0.1,1.3-0.4c0.7-0.4,1.1-1.1,1.2-2
							c-0.1-1.3-1.2-2.3-2.5-2.3c-0.5,0-0.9,0.1-1.3,0.4C544,284.4,543.5,285.1,543.5,286z"/>
					</g>
					<rect x="543.5" y="310.9" class="st20" width="25.5" height="2.8"/>
				</g>
			</g>
			<g>
				<g>
					<g>
						<g id="_x37__1_">
							<g>
								<path class="st21" d="M713.9,243.4v6v0.8l0.4,8.6l0.2,3.5l0.1,1.7l1.9,36.9v0.9l0.5,9.1l0.1,1l0.3,6.1l0.1,1v0.6v0.3
									l0.1,1.4l0.2,3.1c0.4,2,1.5,3.8,3.1,5.3l0.1,0.1l0.1,0.1c0.1,0.1,0.3,0.2,0.4,0.4c0.1,0.1,0.3,0.2,0.4,0.3h17
									c0.3-0.2,0.6-0.4,0.8-0.7l0.1-0.1c1.6-1.5,2.7-3.3,3.2-5.4l0.2-3.1l2.5-47.8l0.1-1.9v-0.4v-0.4v-0.3l0.1-1.2l0.3-5.3
									l0.1-1.7l0.2-3.5l0.4-8.6v-0.8v-6L713.9,243.4L713.9,243.4z"/>
								<path class="st22" d="M717.6,319.9l0.1,1.4l0.2,3.1c0.4,2,1.5,3.8,3.1,5.3l0.1,0.1l0.1,0.1c0.1,0.1,0.3,0.2,0.4,0.4
									c0.1,0.1,0.3,0.2,0.4,0.3h17c0.3-0.2,0.6-0.4,0.8-0.7l0.1-0.1c1.6-1.5,2.7-3.3,3.2-5.4l0.2-3.1l2.5-47.8l0.1-1.9v-0.4v-0.4
									v-0.3l0.1-1.2l0.3-5.3l0.1-1.7l0.2-3.5l0.4-8.6v-0.8v-6"/>
								<g id="CAP_1_">
									<rect x="721" y="329.9" class="st19" width="18.9" height="10.1"/>
									<path class="st3" d="M721,340L721,340c0,1.9,1,3.3,2.3,3.3h14.3c1.3,0,2.3-1.4,2.3-3.2V340H721z"/>
								</g>
								<g id="TOP_LINES_1_">
									<path class="st23" d="M743.6,248.6c0.3,0,0.5-0.2,0.5-0.5v-2.9c0-0.3-0.2-0.5-0.5-0.5s-0.5,0.2-0.5,0.5v2.9
										C743.2,248.4,743.4,248.6,743.6,248.6z"/>
									<path class="st23" d="M741.8,248.6c0.3,0,0.5-0.2,0.5-0.5v-2.9c0-0.3-0.2-0.5-0.5-0.5s-0.5,0.2-0.5,0.5v2.9
										C741.3,248.4,741.5,248.6,741.8,248.6z"/>
									<path class="st23" d="M740,248.6c0.3,0,0.5-0.2,0.5-0.5v-2.9c0-0.3-0.2-0.5-0.5-0.5s-0.5,0.2-0.5,0.5v2.9
										C739.5,248.4,739.7,248.6,740,248.6z"/>
									<path class="st23" d="M738,248.6c0.3,0,0.5-0.2,0.5-0.5v-2.9c0-0.3-0.2-0.5-0.5-0.5s-0.5,0.2-0.5,0.5v2.9
										C737.5,248.4,737.7,248.6,738,248.6z"/>
									<path class="st23" d="M736.1,248.6c0.3,0,0.5-0.2,0.5-0.5v-2.9c0-0.3-0.2-0.5-0.5-0.5s-0.5,0.2-0.5,0.5v2.9
										C735.6,248.4,735.8,248.6,736.1,248.6z"/>
									<path class="st23" d="M734.2,248.6c0.3,0,0.5-0.2,0.5-0.5v-2.9c0-0.3-0.2-0.5-0.5-0.5s-0.5,0.2-0.5,0.5v2.9
										C733.8,248.4,734,248.6,734.2,248.6z"/>
									<path class="st23" d="M732.3,248.6c0.3,0,0.5-0.2,0.5-0.5v-2.9c0-0.3-0.2-0.5-0.5-0.5s-0.5,0.2-0.5,0.5v2.9
										C731.9,248.4,732.1,248.6,732.3,248.6z"/>
									<path class="st23" d="M730.6,248.6c0.3,0,0.5-0.2,0.5-0.5v-2.9c0-0.3-0.2-0.5-0.5-0.5s-0.5,0.2-0.5,0.5v2.9
										C730.1,248.4,730.3,248.6,730.6,248.6z"/>
									<path class="st23" d="M728.6,248.6c0.3,0,0.5-0.2,0.5-0.5v-2.9c0-0.3-0.2-0.5-0.5-0.5s-0.5,0.2-0.5,0.5v2.9
										C728.1,248.4,728.3,248.6,728.6,248.6z"/>
									<path class="st23" d="M726.7,248.6c0.3,0,0.5-0.2,0.5-0.5v-2.9c0-0.3-0.2-0.5-0.5-0.5s-0.5,0.2-0.5,0.5v2.9
										C726.2,248.4,726.4,248.6,726.7,248.6z"/>
									<path class="st23" d="M724.8,248.6c0.3,0,0.5-0.2,0.5-0.5v-2.9c0-0.3-0.2-0.5-0.5-0.5s-0.5,0.2-0.5,0.5v2.9
										C724.3,248.4,724.6,248.6,724.8,248.6z"/>
									<path class="st23" d="M722.9,248.6c0.3,0,0.5-0.2,0.5-0.5v-2.9c0-0.3-0.2-0.5-0.5-0.5s-0.5,0.2-0.5,0.5v2.9
										C722.5,248.4,722.7,248.6,722.9,248.6z"/>
									<path class="st23" d="M721.1,248.6c0.3,0,0.5-0.2,0.5-0.5v-2.9c0-0.3-0.2-0.5-0.5-0.5s-0.5,0.2-0.5,0.5v2.9
										C720.7,248.4,720.9,248.6,721.1,248.6z"/>
									<path class="st23" d="M719.2,248.6c0.3,0,0.5-0.2,0.5-0.5v-2.9c0-0.3-0.2-0.5-0.5-0.5s-0.5,0.2-0.5,0.5v2.9
										C718.7,248.4,718.9,248.6,719.2,248.6z"/>
									<path class="st23" d="M717.2,248.6c0.3,0,0.5-0.2,0.5-0.5v-2.9c0-0.3-0.2-0.5-0.5-0.5s-0.5,0.2-0.5,0.5v2.9
										C716.8,248.4,717,248.6,717.2,248.6z"/>
								</g>
							</g>
						</g>
					</g>
					<rect x="720.9" y="275.2" class="st20" width="19.2" height="21"/>
				</g>
				<path class="st22" d="M721,340L721,340c0,1.9,1,3.3,2.3,3.3h14.3c1.3,0,2.3-1.4,2.3-3.2V340H721z"/>
			</g>
		</g>
		<g id="_x32__ARTIST_1_">
			<g id="EASEL_3_">
				<g id="CANVAS_2_">
					<g>
						<polygon class="st24" points="984.9,530.9 990.5,530.9 1036.5,272.4 1030.9,272.4 						"/>
						<polygon class="st24" points="1009,610.2 1014.5,610.2 1016.4,546.8 1016.6,540.3 1011.1,540.3 1011,543.6 						"/>
						<polygon class="st24" points="938.1,610.2 943.7,610.2 960.3,540.3 954.8,540.3 954,543.6 						"/>
						<rect x="935.2" y="530.9" class="st25" width="98.7" height="9.4"/>
					</g>
					<g>
						<polygon class="st26" points="973.1,530.9 984.9,530.9 1030.9,272.4 1019.1,272.4 						"/>
						<polygon class="st24" points="1014.9,540.3 1016.4,546.8 1030.9,610.2 1042.7,610.2 1026.7,540.3 						"/>
						<polygon class="st26" points="997.2,610.2 1009,610.2 1011,543.6 1011.1,540.3 999.3,540.3 999.2,543.6 						"/>
						<polygon class="st26" points="926.3,610.2 938.1,610.2 954,543.6 954.8,540.3 943,540.3 942.2,543.6 						"/>
						<rect x="929.7" y="530.9" class="st26" width="98.7" height="9.4"/>
					</g>
					<path class="st19" d="M1093.5,323.4l-37.9,204.9c-0.3,1.5-1.6,2.5-3.2,2.5H905.3c-2,0-3.5-1.7-3.2-3.6L940,322.4
						c0.3-1.5,1.6-2.5,3.2-2.5h147.1C1092.3,319.8,1093.8,321.5,1093.5,323.4z"/>
					<path class="st27" d="M1101.3,323.4l-37.9,204.9c-0.3,1.5-1.6,2.5-3.2,2.5h-7.8c1.6,0,2.9-1.1,3.2-2.5l37.9-204.9
						c0.3-1.9-1.2-3.6-3.2-3.6h7.8C1100.1,319.8,1101.6,321.5,1101.3,323.4z"/>
					<polygon class="st25" points="943,540.3 954.8,540.3 954,543.6 942.2,543.6 					"/>
					<polygon class="st25" points="1011.1,540.3 1011,543.6 999.2,543.6 999.3,540.3 					"/>
				</g>
				
					<ellipse transform="matrix(0.3162 -0.9487 0.9487 0.3162 288.9603 1232.1072)" class="st28" cx="999.2" cy="415.6" rx="43.5" ry="43.5"/>
			</g>
			<g id="WOMAN_1_">
				<g id="HANDS_1_">
					<g id="RIGHT_1_">
						<g>
							<path class="st29" d="M963.2,402.6l-33.6,33c-0.6,0.6-0.6,1.6,0,2.2s1.6,0.6,2.2,0l33.6-33c0.1-0.1,0.2-0.2,0.3-0.4
								c-0.1-0.1-0.2-0.2-0.3-0.2l-1.6-1.6c-0.1-0.1-0.2-0.2-0.2-0.3C963.4,402.4,963.3,402.6,963.2,402.6z"/>
							<path class="st30" d="M963.6,402.3c0.1,0.1,0.1,0.2,0.2,0.3l1.6,1.6c0.1,0.1,0.2,0.2,0.3,0.2c0.6-0.7,1.5-2.1,1.9-3.1
								c0.2-0.4,0.2-0.8,0.1-1c-0.2-0.2-0.5-0.1-1,0c-0.4,0.1-0.8,0.4-1.3,0.6C964.7,401.5,964,402,963.6,402.3z"/>
							<path class="st29" d="M966.7,400.4c0,0.1,0.1,0.2,0.1,0.2l0.5,0.6c0.1,0.1,0.1,0.1,0.2,0.2c0.2-0.4,0.6-1.1,0.4-1.3
								C967.8,399.9,967.1,400.3,966.7,400.4z"/>
						</g>
						<path class="st0" d="M957.2,408.6c0,0-17.1,1.3-18.7,2.5c-3.1,2.3-15.1,22.9-15.1,22.9l11.9,3.3c0,0,15.2-8.3,16-10.7
							c0.8-2.3,3.9-10.5,3.9-10.5s-3,0-4.2,2.1c-1.3,2.3-5.8,6.2-7.2,6.4c-2.4,0.2,2.1-9.4,4-10.2
							C949.8,413.6,956.4,412.9,957.2,408.6z"/>
					</g>
					<path id="LEFT_4_" class="st0" d="M1061.9,481.5c0,0,0-9.3,0.4-13.8c0.1-1.4,4.3-9.7,4.3-9.7s2.7,1.7,1.8,6.3
						c-0.6,3.3-2.4,7.4,0.5,8.8c2.6,1.3,4.3-9.5,4.3-9.5l5.3-17.5c0,0,3.9,12,4.1,22.2c0.2,10.3-11,25.7-11,25.7L1061.9,481.5z"/>
					<path id="LEFT_3_" class="st22" d="M1061.9,481.5c0,0,0-9.3,0.4-13.8c0.1-1.4,4.3-9.7,4.3-9.7s2.7,1.7,1.8,6.3
						c-0.6,3.3-2.4,7.4,0.5,8.8c2.6,1.3,4.3-9.5,4.3-9.5l5.3-17.5c0,0,3.9,12,4.1,22.2c0.2,10.3-11,25.7-11,25.7L1061.9,481.5z"/>
				</g>
				<path class="st31" d="M893,461c1.8,0.6,3.7,1.2,5.8,1.9c6.8,2.2,14.9,4.5,22,6.8l16.6-32.4l-13.9-4.3L893,461z"/>
				<path id="HEAD_8_" class="st0" d="M844.9,473.1C844.9,473.2,844.9,473.2,844.9,473.1C844.9,473.2,844.9,473.2,844.9,473.1
					c32.3,4.8,61.6-0.3,73.3-2.9c0.9-0.2,1.7-0.4,2.4-0.5c0.1,0,0.1,0,0.2,0c-7.1-2.3-15.2-4.7-22-6.8c-2.1-0.7-4-1.3-5.8-1.9
					c-3.3-1.1-6-2.2-7.7-3.1c-1.8-1-3.3-2.4-4.3-3.9c-2.7-3.9-3.2-9-2.9-13.3c0.2-2.1,1.2-11,1.3-12.6c0.6-9.4,13.6-5.2,15.8-13.5
					c0.8-3,4.3-20.6,3.8-33.7c0-0.1,0-0.1,0-0.2c-0.2-6.4-4.5-11.7-4.6-13.6c0,0.1-0.1,0.2-0.1,0.2s0,0.1-0.1,0.1
					c0,0.1-0.1,0.2-0.1,0.3c0,0.1-0.1,0.2-0.1,0.3c0,0.1-0.1,0.1-0.1,0.2v0.1c0,0.1-0.1,0.1-0.1,0.2s-0.1,0.1-0.1,0.2v0.1
					c0,0.1-0.1,0.2-0.1,0.3c-0.1,0.2-0.3,0.5-0.4,0.7c-0.4,0.7-0.9,1.3-1.4,1.9c-0.7,0.8-1.5,1.6-2.3,2.4c-0.1,0.1-0.2,0.2-0.4,0.3
					c-0.1,0.1-0.2,0.1-0.2,0.2c-0.1,0.1-0.1,0.1-0.2,0.2c-1.4,1.2-2.9,2.5-4.4,3.8c-0.1,0.1-0.2,0.2-0.3,0.3
					c-0.2,0.2-0.4,0.3-0.6,0.5c-0.1,0.1-0.3,0.2-0.4,0.4c-0.2,0.1-0.3,0.3-0.5,0.4c-0.1,0.1-0.2,0.2-0.4,0.3
					c-0.2,0.2-0.4,0.4-0.7,0.6c-0.1,0.1-0.3,0.3-0.4,0.4c-0.2,0.2-0.4,0.4-0.6,0.6c-0.1,0.1-0.3,0.2-0.4,0.4l0,0
					c-0.3,0.3-0.6,0.6-0.9,0.9c-0.2,0.2-0.3,0.3-0.5,0.5c-0.1,0.1-0.3,0.3-0.4,0.4l-0.1,0.1c-0.1,0.1-0.3,0.3-0.4,0.5
					c-5.1,7.6-1.7,33.4-8.3,50c-0.9,2.3-2.2,4.3-3.8,6.3c-0.1,0.2-0.2,0.3-0.3,0.5c0,0.1-0.1,0.1-0.2,0.2c-0.1,0.1-0.1,0.2-0.2,0.3
					c-0.1,0.2-0.3,0.3-0.4,0.5c-0.1,0.2-0.3,0.4-0.4,0.5l-0.1,0.1c-0.1,0.1-0.1,0.2-0.2,0.3l-0.1,0.1c-0.1,0.1-0.2,0.2-0.3,0.3
					c-0.1,0.1-0.2,0.2-0.2,0.3c0,0,0,0.1-0.1,0.1c-0.1,0.1-0.2,0.2-0.3,0.3c-0.1,0.1-0.2,0.2-0.3,0.3c-0.1,0.1-0.2,0.2-0.3,0.3
					c-0.2,0.2-0.4,0.4-0.6,0.6c-0.8,0.8-1.5,1.5-2.3,2.2c-0.1,0.1-0.2,0.2-0.3,0.3c-0.1,0.1-0.2,0.2-0.3,0.3
					c-0.1,0.1-0.2,0.2-0.3,0.3c-0.1,0.1-0.2,0.2-0.3,0.3c-0.1,0.1-0.2,0.2-0.3,0.3c-0.7,0.7-1.5,1.3-2.2,2c-0.1,0.1-0.3,0.3-0.4,0.4
					C849.4,457.5,844.4,463.8,844.9,473.1z"/>
				<path id="BLOUSE_6_" class="st31" d="M986.9,586.9c5.9-3.3,54.8-20.7,86.5-92.7l-12.3-14.5c0,0-76.6,69.1-81.9,68.7
					c-5.3-0.4-32-78.2-58.4-78.8c-0.1,0-0.1,0-0.2,0c-9.7,2.3-41,8.6-75.7,3.5c-49.6,6.9-51.1,30.1-49.6,44.6
					c1.7,15.9,10.1,92.4,9.5,92.6h104.3c0.5-0.6,3-21.3,8.8-27.5c10.8-11.6,8.8-33,4.1-48.2C922.1,534.6,944.8,610.2,986.9,586.9z"
					/>
				<path id="SHAWL_3_" class="st32" d="M898.1,462.5c-0.1,0-9.8-1-14.1-3.9c-0.8-0.9-2.5-3.8-3-4.7h-28.3c2.9-2.6,6.3-5.5,10.1-9.5
					c1.2-1.3,2.3-2.6,3.1-3.9h14.2c0,0.3,1.4-2.6,3.6-3.5c5.9-2.5,13.2-4.1,13.2-4.1s-6.8,9.9-9.9,11c-1,0.4-2.8,0.9-4.6,1.4
					c0.5,0.6,0.7,1.5,0.7,2.5c0,0,6.1,1.7,9.4,4.7C895.8,455.6,898.1,462.4,898.1,462.5z"/>
				<g id="HAIR_3_">
					<path class="st23" d="M800.2,568.7c52.4,0,53.5-38,53.5-38c1.5-26.3-6.5-44.3-8.8-57.3l0,0c0-0.1,0-0.2,0-0.2
						c-0.5-9.3,4.5-15.7,10.2-21.4c3.6-3.6,7.5-7,10.5-10.7c1.6-2,2.9-4.1,3.8-6.3c6.6-16.6,3.2-42.4,8.3-50
						c0.1-0.2,0.3-0.3,0.4-0.5l0.1-0.1c0.1-0.1,0.3-0.3,0.4-0.4c0.2-0.2,0.3-0.3,0.5-0.5c0.3-0.3,0.6-0.6,0.9-0.9l0,0
						c0.1-0.1,0.3-0.2,0.4-0.4c0.2-0.2,0.4-0.4,0.6-0.6c0.1-0.1,0.3-0.2,0.4-0.4c0.2-0.2,0.4-0.4,0.7-0.6c0.1-0.1,0.2-0.2,0.4-0.3
						c0.2-0.1,0.3-0.3,0.5-0.4c0.1-0.1,0.3-0.2,0.4-0.4c0.2-0.2,0.4-0.3,0.6-0.5c0.1-0.1,0.2-0.2,0.3-0.3c1.5-1.3,3-2.5,4.4-3.8
						c0.1-0.1,0.1-0.1,0.2-0.2c0.1-0.1,0.2-0.1,0.2-0.2c0.1-0.1,0.2-0.2,0.4-0.3c0.8-0.8,1.6-1.6,2.3-2.4c0.5-0.6,1-1.3,1.4-1.9
						c0.1-0.2,0.3-0.5,0.4-0.7c0-0.1,0.1-0.2,0.1-0.3v-0.1c0-0.1,0.1-0.1,0.1-0.2s0.1-0.1,0.1-0.2v-0.1c0-0.1,0.1-0.1,0.1-0.2
						s0.1-0.2,0.1-0.3c0-0.1,0.1-0.2,0.1-0.3c0,0,0-0.1,0.1-0.1c0-0.1,0.1-0.2,0.1-0.2c0.1,1.9,4.4,7.2,4.6,13.6c0,0.1,0,0.1,0,0.2
						h4.2c0,0,0.6-11.4-0.6-19.4c-1.1-8.1-12.8-14.4-12.8-14.4v0.1c-6.5-5.5-26.6-11.6-35.8-11.8c-56-1.2-36.9,59.8-34.5,70.2
						c2.5,10.4-10.4,14.6-24.5,25.4s-6.7,30.8-5,41.2c2.4,14.6-23,22.6-24.2,45.6C766.3,528.1,760.1,568.7,800.2,568.7z"/>
					<path class="st23" d="M894.4,367.2C894.4,367.2,894.5,367.1,894.4,367.2c0.2,1.8,0.4,7.2,0.7,13.6h4c0-0.1,0-0.1,0-0.2
						c-0.2-6.4-4.5-11.7-4.6-13.6C894.4,367,894.4,367.1,894.4,367.2z"/>
				</g>
			</g>
		</g>
		<g>
			<path class="st33" d="M101.1,210.4c5-13.1,20.9-11,20.9-20.4l18.6,2.8c8.4,5.1,25.3,2.6,30,16.3c5.7,9.8,20.1,47,20.1,47
				l39.5-5.5l9.5,12.8c0,0-27.6,7.7-48.8,11.2c-11.3,2.1-20-5.1-20-5.1l-4.6-4.1l0.2,22.9h-57.7"/>
			<path class="st5" d="M191,274.7c-27.3,5.5-45.9-42.9-45.9-42.9"/>
			<path class="st3" d="M254.7,214.9h134.4v169.3H254.7V214.9z"/>
			<path class="st0" d="M261.2,242.2c-1.1,0.4-2.3,0.7-2.8,0.9c-2,0.8-11.7,6.9-4.1,5.1c4-1.1,6.2-2,9.4-3.4
				c9.1-3.8,13.3-2.9,6.8,2.5s-5.1,11.3-18,12.6c-8.4,0.6-5.5,0.4-13.7,2.1l-7.8-10.5c8.2-0.7,22.3-13.2,30.5-12.5
				c0.6,0.1,1.2,0.2,1.6,0.2"/>
			<path class="st3" d="M254.7,235.4V246c0.4-0.4,9.3-4,9.3-4l3.7-9h-7.6L254.7,235.4z"/>
			<path class="st1" d="M166.5,288.3l61.3,203.1h-27.5l-60.7-147.7l-11,147.7h-27c0,0-4-111-1.1-139.1c3-28.1,4.5-56.9,8.2-64"/>
			<path class="st5" d="M139.5,343.7c-4.2-10.3-2.6-9.8-4.2-18.5"/>
			<path class="st1" d="M213.9,491.4l2.5,9l-0.4,17.7h45.5c-7-12.6-22,2.7-33.9-26.7C212.9,491.4,213.9,491.4,213.9,491.4z"/>
			<path class="st34" d="M214.2,491.4l15.5,4.6c0,0-1.3-2.2-2.1-4.6H214.2z"/>
			<path class="st5" d="M231.9,500.4h-15.4"/>
			<path class="st1" d="M107.8,491.4l-4.7,26.7h41.5c-5-12.8-29.4,0-23-26.7C106.8,491.4,107.8,491.4,107.8,491.4z"/>
			<path class="st5" d="M66.2,518.1h233.6"/>
			<path class="st35" d="M66.2,519.2h233.6"/>
			<path class="st5" d="M106.2,500.6h14"/>
			<path class="st34" d="M108,491.4l12.7,4.6c0,0,0.2-2,0.9-4.6H108z"/>
			<g>
				<path id="HEAD_6_" class="st0" d="M120.3,199.6L120.3,199.6L120.3,199.6c15.8,2.3,30.1-0.2,35.9-1.4c0.4-0.1,0.8-0.2,1.2-0.3
					h0.1c-3.5-1.1-7.4-2.3-10.8-3.3c-1-0.3-2-0.6-2.8-0.9c-1.6-0.6-2.9-1.1-3.7-1.5c-0.9-0.5-1.6-1.2-2.1-1.9
					c-1.3-1.9-1.6-4.4-1.4-6.5c0.1-1,0.6-5.4,0.7-6.1c0.3-4.6,6.6-2.5,7.7-6.6c0.4-1.5,2.1-10.1,1.9-16.5v-0.1
					c-0.1-3.1-2.2-5.7-2.2-6.7v0.1c0,0,0,0,0,0.1s0,0.1-0.1,0.2c0,0,0,0.1-0.1,0.1v0.1l0,0v0.1v0.1l0,0c0,0,0,0.1-0.1,0.1
					c-0.1,0.1-0.1,0.2-0.2,0.3c-0.2,0.3-0.4,0.6-0.7,0.9c-0.3,0.4-0.7,0.8-1.1,1.2c-0.1,0.1-0.1,0.1-0.2,0.2l-0.1,0.1l-0.1,0.1
					c-0.7,0.6-1.4,1.2-2.1,1.8l-0.1,0.1c-0.1,0.1-0.2,0.2-0.3,0.2c-0.1,0.1-0.1,0.1-0.2,0.2c-0.1,0.1-0.2,0.1-0.2,0.2
					c-0.1,0.1-0.1,0.1-0.2,0.2c-0.1,0.1-0.2,0.2-0.3,0.3s-0.1,0.1-0.2,0.2c-0.1,0.1-0.2,0.2-0.3,0.3s-0.1,0.1-0.2,0.2l0,0
					c-0.2,0.1-0.3,0.3-0.5,0.4c-0.1,0.1-0.2,0.2-0.2,0.2c-0.1,0.1-0.1,0.1-0.2,0.2c0,0,0,0,0,0.1c-0.1,0.1-0.1,0.1-0.2,0.2
					c-2.5,3.7-0.8,16.3-4,24.4c-0.4,1.1-1.1,2.1-1.9,3.1c-0.1,0.1-0.1,0.1-0.2,0.2c0,0,0,0.1-0.1,0.1l-0.1,0.1
					c-0.1,0.1-0.1,0.2-0.2,0.3c-0.1,0.1-0.1,0.2-0.2,0.3c0,0,0,0-0.1,0.1L130,185c0,0,0,0-0.1,0.1c0,0.1-0.1,0.1-0.1,0.2l-0.1,0.1
					l0,0l-0.1,0.1c-0.1,0.1-0.1,0.1-0.2,0.2c0,0.1-0.1,0.1-0.2,0.2c-0.1,0.1-0.2,0.2-0.3,0.3c-0.4,0.4-0.7,0.7-1.1,1.1
					c-0.1,0.1-0.1,0.1-0.2,0.2c-0.1,0.1-0.1,0.1-0.2,0.2c-0.1,0.1-0.1,0.1-0.2,0.1c-0.1,0.1-0.1,0.1-0.2,0.1s-0.1,0.1-0.2,0.1
					c-0.4,0.3-0.7,0.7-1.1,1c-0.1,0.1-0.1,0.1-0.2,0.2C122.5,191.9,120,195,120.3,199.6z"/>
				<path id="SHAWL_2_" class="st32" d="M146.7,194.7c-0.1,0-5.9-1.2-7.3-2.7c-0.4-0.5-1.3-1.3-1.5-1.8h-13.8
					c1.4-1.3,3.1-2.7,4.9-4.6c0.6-0.6,1.1-1.3,1.5-1.9h7c0,0.1,0.7-1.3,1.8-1.7c2.9-1.2,6.5-2,6.5-2s-3.3,4.8-4.9,5.4
					c-0.5,0.2-1.4,0.4-2.3,0.7c0.2,0.3,0.4,0.7,0.4,1.2c0,0,3,0.8,4.6,2.3S146.7,194.7,146.7,194.7z"/>
				<g id="HAIR_2_">
					<path class="st23" d="M98.4,246.3c25.6,0,26.1-18.6,26.1-18.6c0.7-12.9-3.2-21.7-4.3-28l0,0v-0.1c-0.2-4.6,2.7-7.3,5.5-10.1
						c1.8-1.8,4-3.8,5.4-5.6c0.8-1,1.4-2,1.9-3.1c3.2-8.1,0.7-20.7,3.1-24.4c0.1-0.1,0.1-0.1,0.2-0.2c0,0,0,0,0-0.1
						c0.1-0.1,0.1-0.1,0.2-0.2c0.1-0.1,0.2-0.2,0.2-0.2c0.1-0.2,0.3-0.3,0.5-0.4l0,0c0.1-0.1,0.1-0.1,0.2-0.2
						c0.1-0.1,0.2-0.2,0.3-0.3s0.1-0.1,0.2-0.2c0.1-0.1,0.2-0.2,0.3-0.3s0.1-0.1,0.2-0.2c0.1-0.1,0.2-0.1,0.2-0.2
						c0.1-0.1,0.1-0.1,0.2-0.2c0.1-0.1,0.2-0.2,0.3-0.2l0.1-0.1c0.8-0.6,1.5-1.2,2.1-1.8l0.1-0.1l0.1-0.1c0.1-0.1,0.1-0.1,0.2-0.2
						c0.4-0.4,0.8-0.8,1.1-1.2c0.3-0.3,0.5-0.6,0.7-0.9c0.1-0.1,0.1-0.2,0.2-0.3c0,0,0-0.1,0.1-0.1l0,0v-0.1v-0.1l0,0v-0.1
						c0,0,0-0.1,0.1-0.1c0-0.1,0-0.1,0.1-0.2c0,0,0,0,0-0.1v-0.1c0,0.9,2.1,3.5,2.2,6.7v0.1h2.1c0,0,0.3-5.6-0.3-9.5
						c-0.5-3.9-6.3-7.1-6.3-7.1v0.1c-3.2-2.7-13-5.7-17.5-5.8c-27.4-0.6-18.1,29.2-16.8,34.3c1.2,5.1-5.1,7.1-12,12.4
						c-6.9,5.3-3.3,15-2.4,20.2c1.2,7.1-11.3,11.1-11.8,22.3C81.8,226.4,78.8,246.3,98.4,246.3z"/>
					<path class="st36" d="M148.4,144.8c-0.5-7.1-19.6-12.3-24.1-12.4c-27.4-0.6-18.1,29.2-16.8,34.3c1.2,5.1-5.1,7.1-12,12.4
						c-6.9,5.3-3.3,15-2.4,20.2c1.2,7.1-11.3,11.1-11.8,22.3c0.5,4.8-3.1,25.1,16.5,25.1"/>
					<path class="st37" d="M144.5,147.8C144.5,147.8,144.5,147.7,144.5,147.8c0.1,0.9,0.2,3.5,0.3,6.6h2v-0.1
						c-0.1-3.1-2.2-5.7-2.2-6.7C144.5,147.7,144.5,147.7,144.5,147.8z"/>
				</g>
			</g>
			<circle class="st0" cx="133.9" cy="162.9" r="3.9"/>
		</g>
		<g id="EASEL_1_">
			<g>
				<polygon class="st24" points="314.6,306.7 310.1,306.7 327.6,209.8 332.1,209.8 				"/>
				<polygon class="st24" points="321.4,384.2 317,384.2 320.1,310.5 324.6,310.5 				"/>
				<polygon class="st24" points="303.1,310.5 283.1,384 283.1,384.2 278.6,384.2 298.4,311.8 298.7,310.5 				"/>
				<rect x="293.6" y="306.7" class="st24" width="37.5" height="3.8"/>
			</g>
			<g>
				<polygon class="st26" points="312.5,306.7 308,306.7 325.5,209.8 330,209.8 				"/>
				<polygon class="st24" points="343,384.2 347.5,384.2 328.4,310.5 323.9,310.5 				"/>
				<polygon class="st26" points="322.4,310.5 322.4,311.8 319.3,384.2 314.9,384.2 317.9,311.8 318,310.5 				"/>
				<polygon class="st26" points="301,310.5 300.7,311.8 280.9,384.2 276.5,384.2 296.3,311.8 296.6,310.5 				"/>
				<rect x="291.5" y="306.7" class="st26" width="37.5" height="3.8"/>
			</g>
			<path class="st19" d="M353.8,223.5l-14.4,82.2c-0.1,0.6-0.6,1-1.2,1h-56c-0.8,0-1.3-0.7-1.2-1.4l14.4-82.2c0.1-0.6,0.6-1,1.2-1
				h56C353.4,222,353.9,222.7,353.8,223.5z"/>
			<path class="st27" d="M356.8,223.5l-14.4,82.2c-0.1,0.6-0.6,1-1.2,1h-3c0.6,0,1.1-0.4,1.2-1l14.4-82.2c0.1-0.8-0.4-1.4-1.2-1.4h3
				C356.3,222,356.9,222.7,356.8,223.5z"/>
			<polygon class="st25" points="296.6,310.5 301,310.5 300.7,311.8 296.3,311.8 			"/>
			<polygon class="st25" points="322.4,310.5 322.4,311.8 317.9,311.8 318,310.5 			"/>
		</g>
	</g>
	<path class="st27" d="M427.9,239.5c-22.2,0-40.2-18-40.2-40.2s18-40.2,40.2-40.2"/>
	<g>
		<circle class="st38" cx="427.9" cy="196.3" r="40.2"/>
		<g>
			<rect x="405.8" y="186.2" class="st20" width="43.7" height="30.8"/>
			<polygon class="st20" points="452.9,187.2 403.4,187.2 405.2,175.5 451,175.5 			"/>
			<g>
				<g>
					<path class="st39" d="M414.1,190.6c1.9,0,3.5-1.5,3.5-3.5h-6.9C410.6,189.1,412.2,190.6,414.1,190.6z"/>
				</g>
				<g>
					<polygon class="st33" points="412,175.5 410.6,187.2 417.5,187.2 418.9,175.5 					"/>
				</g>
				<g>
					<polygon class="st33" points="425.2,175.5 424.4,187.2 431.7,187.2 430.6,175.5 					"/>
				</g>
				<g>
					<path class="st39" d="M428.3,190.6c1.9,0,3.5-1.5,3.5-3.5h-7.3C424.4,189.1,426.4,190.6,428.3,190.6z"/>
				</g>
				<g>
					<polygon class="st33" points="436.9,175.5 438.7,187.2 445.6,187.2 443.8,175.5 					"/>
				</g>
				<g>
					<path class="st39" d="M442.1,190.6c1.9,0,3.5-1.5,3.5-3.5h-6.9C438.7,189.1,440.2,190.6,442.1,190.6z"/>
				</g>
				<line class="st40" x1="449.5" y1="188.2" x2="449.5" y2="217.1"/>
				<line class="st40" x1="405.8" y1="217.1" x2="405.8" y2="188.2"/>
				<line class="st5" x1="401.6" y1="217" x2="454.1" y2="217"/>
				<path class="st1" d="M410.5,187.1c0,1.9-1.6,3.5-3.5,3.5s-3.5-1.6-3.5-3.5"/>
				<path class="st5" d="M431.6,194.5c0,1.3-1.1,2.4-2.4,2.4s-2.4-1.1-2.4-2.4"/>
				<path class="st5" d="M436.3,194.5c0,1.3-1.1,2.4-2.4,2.4s-2.4-1.1-2.4-2.4"/>
				<path class="st5" d="M441.1,194.5c0,1.3-1.1,2.4-2.4,2.4s-2.4-1.1-2.4-2.4"/>
				<path class="st5" d="M445.8,194.5c0,1.3-1.1,2.4-2.4,2.4s-2.4-1.1-2.4-2.4"/>
				<rect x="426.7" y="194.2" class="st5" width="19.2" height="9.8"/>
				<rect x="410.3" y="194.2" class="st5" width="12.2" height="22.6"/>
				<line class="st5" x1="410.5" y1="187" x2="412" y2="175.6"/>
				<line class="st5" x1="417.5" y1="187" x2="419.1" y2="175.6"/>
				<path class="st1" d="M424.6,187.1c0,1.9-1.6,3.5-3.5,3.5s-3.5-1.6-3.5-3.5"/>
				<line class="st5" x1="424.6" y1="187" x2="425.2" y2="175.6"/>
				<line class="st5" x1="431.6" y1="187" x2="430.7" y2="175.6"/>
				<path class="st1" d="M438.7,187.1c0,1.9-1.6,3.5-3.5,3.5s-3.5-1.6-3.5-3.5"/>
				<line class="st5" x1="438.7" y1="187" x2="436.7" y2="175.6"/>
				<line class="st5" x1="445.8" y1="187" x2="443.8" y2="175.6"/>
				<path class="st1" d="M452.8,187.1c0,1.9-1.6,3.5-3.5,3.5s-3.5-1.6-3.5-3.5"/>
				<line class="st5" x1="410.5" y1="187.2" x2="414.5" y2="187.2"/>
				<line class="st5" x1="443.6" y1="187.2" x2="447.1" y2="187.2"/>
				<line class="st5" x1="436.3" y1="187.2" x2="437.5" y2="187.2"/>
				<line class="st5" x1="426.3" y1="187.2" x2="434" y2="187.2"/>
				<line class="st5" x1="419.8" y1="187.2" x2="424.6" y2="187.2"/>
				<line class="st5" x1="416.5" y1="187.2" x2="418.5" y2="187.2"/>
				<polyline class="st5" points="449.5,187.2 452.9,187.2 451.1,175.4 405.2,175.5 403.3,187.2 406.9,187.2 				"/>
				<path class="st5" d="M417.5,187.1c0,1.9-1.6,3.5-3.5,3.5s-3.5-1.6-3.5-3.5"/>
				<path class="st5" d="M431.7,187.1c0,1.9-1.6,3.5-3.6,3.5c-1.9,0-3.5-1.6-3.5-3.6"/>
				<path class="st5" d="M445.8,187.1c0,1.9-1.6,3.5-3.5,3.5s-3.5-1.6-3.5-3.5"/>
			</g>
		</g>
	</g>
	<path class="st5" d="M444.8,232.8c-5.1,2.4-10.9,3.7-16.9,3.7c-22.2,0-40.2-18-40.2-40.2c0-8.3,2.5-16.1,6.9-22.5"/>
	<g>
		<circle class="st3" cx="963.6" cy="90.3" r="32.5"/>
		<g>
			<g>
				<g>
					<path class="st41" d="M977.9,82.1c0-8.2-6.9-14.8-15.2-14.3c-7.3,0.5-13.1,6.5-13.4,13.7c-0.2,4,1.4,7.7,3.9,10.4
						c2.2,2.4,3.6,5.4,3.6,8.7v3.3h13.7v-3.3c0-3.3,1.3-6.3,3.6-8.7C976.4,89.4,977.9,85.9,977.9,82.1z"/>
				</g>
			</g>
			<line class="st22" x1="956.7" y1="104" x2="970.4" y2="104"/>
			<line class="st22" x1="958.7" y1="108.3" x2="968.4" y2="108.3"/>
			<line class="st22" x1="960.9" y1="112.7" x2="966.2" y2="112.7"/>
			<line class="st22" x1="960.9" y1="104" x2="960.9" y2="93.7"/>
			<line class="st22" x1="965.5" y1="104" x2="965.5" y2="91.1"/>
		</g>
	</g>
	<g>
		<circle class="st3" cx="1101.3" cy="207" r="32.5"/>
		<g>
			<g>
				<path class="st42" d="M1101.6,215.1c-0.3,0-0.5-0.2-0.5-0.5v-19c0-2.5,2-4.4,4.4-4.4s4.4,2,4.4,4.4l0.2,2c0,1.8,1.5,3.4,3.4,3.4
					c1.8,0,3.4-1.5,3.4-3.4v-4.3c0-0.3,0.2-0.5,0.5-0.5l0,0c0.3,0,0.5,0.2,0.5,0.5v4.3c0,2.5-2,4.4-4.4,4.4s-4.4-2-4.4-4.4l-0.2-2
					c0-1.8-1.5-3.4-3.4-3.4s-3.4,1.5-3.4,3.4v19C1102.1,214.9,1101.9,215.1,1101.6,215.1z"/>
			</g>
			<path class="st43" d="M1117.8,225.4L1117.8,225.4l-1.5-13.7l0,0c-0.1-4.4-3.7-7.9-8.1-7.9c-0.1,0-0.1,0-0.2,0h-14.7
				c-0.1,0-0.1,0-0.2,0s-0.1,0-0.2,0l0,0l0,0c-4.3,0.1-7.8,3.6-7.9,7.9l0,0l-1.5,13.7l0,0c0,0.2-0.1,0.4-0.1,0.5
				c0,1.9,1.6,3.5,3.5,3.5c1.3,0,2.4-0.7,3-1.7l0,0l4.7-7.7h11.9l4.7,7.7l0,0c0.6,1,1.7,1.7,3,1.7c1.9,0,3.5-1.6,3.5-3.5
				C1117.9,225.7,1117.8,225.6,1117.8,225.4z"/>
			<g>
				<circle class="st44" cx="1105.6" cy="211.7" r="1.2"/>
			</g>
			<g>
				<circle class="st28" cx="1111.6" cy="211.7" r="1.2"/>
			</g>
			<g>
				<circle class="st26" cx="1108.6" cy="208.6" r="1.2"/>
			</g>
			<g>
				<circle class="st3" cx="1108.6" cy="214.7" r="1.2"/>
			</g>
			<g>
				<g>
					<path class="st42" d="M1087.6,200.4c-0.1,0-0.3-0.1-0.4-0.2c-0.2-0.2-0.2-0.6,0-0.8l4.9-4.9c0.2-0.2,0.6-0.2,0.8,0
						c0.2,0.2,0.2,0.6,0,0.8l-4.9,4.9C1087.9,200.4,1087.8,200.4,1087.6,200.4z"/>
				</g>
				<g>
					<path class="st42" d="M1092.5,200.4c-0.1,0-0.3-0.1-0.4-0.2l-4.9-4.9c-0.2-0.2-0.2-0.6,0-0.8s0.6-0.2,0.8,0l4.9,4.9
						c0.2,0.2,0.2,0.6,0,0.8C1092.8,200.4,1092.7,200.4,1092.5,200.4z"/>
				</g>
			</g>
			<g>
				<path class="st42" d="M1110.3,186.5c-1.5,0-2.7-1.2-2.7-2.7s1.2-2.7,2.7-2.7s2.7,1.2,2.7,2.7S1111.8,186.5,1110.3,186.5z
					 M1110.3,182.2c-0.9,0-1.6,0.7-1.6,1.6s0.7,1.6,1.6,1.6s1.6-0.7,1.6-1.6S1111.2,182.2,1110.3,182.2z"/>
			</g>
			<g>
				<path class="st42" d="M1095.3,190.3c-0.2,0-0.4-0.1-0.5-0.3l-1.7-4c-0.1-0.3,0-0.6,0.3-0.7l4-1.7c0.3-0.1,0.6,0,0.7,0.3l1.7,4
					c0.1,0.3,0,0.6-0.3,0.7l-4,1.7C1095.4,190.3,1095.4,190.3,1095.3,190.3z M1094.2,186l1.3,3l3-1.3l-1.3-3L1094.2,186z"/>
			</g>
			<path class="st5" d="M1083.5,225.4L1083.5,225.4c0,0.2-0.1,0.4-0.1,0.5c0,1.9,1.6,3.5,3.5,3.5c1.3,0,2.4-0.7,3-1.7l0,0l4.7-7.7
				h11.9l4.7,7.7l0,0c0.6,1,1.7,1.7,3,1.7c1.9,0,3.5-1.6,3.5-3.5c0-0.2,0-0.4-0.1-0.5l0,0l-1.5-13.7l0,0c-0.1-4.4-3.7-7.9-8.1-7.9
				c-0.1,0-0.1,0-0.2,0"/>
		</g>
	</g>
	<g>
		<circle class="st3" cx="684.9" cy="476.1" r="32.5"/>
		<g>
			<path class="st41" d="M703.3,473c-0.7-2.5-2.4-4.7-5.2-6.2c-7.4-4-19.2-3.9-26.5,0.1c-2.7,1.5-4.4,3.7-5.1,6.1v4.1
				c0,2.6,1,5.3,3,7c0.6,0.6,1.3,1.1,2.1,1.5c7.4,4,19.2,3.9,26.5-0.1c1.2-0.6,2.1-1.4,2.9-2.3c1.5-1.7,2.2-3.9,2.2-6.2L703.3,473z"
				/>
			<path class="st45" d="M671.7,485.6c7.4,4,19.2,3.9,26.5-0.1c1.2-0.6,2.1-1.4,2.9-2.3c1.5-1.7,2.2-3.9,2.2-6.2v-4
				c-0.7-2.5-2.4-4.7-5.2-6.2"/>
			<g>
				
					<ellipse transform="matrix(1 -5.304834e-03 5.304834e-03 1 -2.5006 3.64)" class="st46" cx="684.9" cy="473.2" rx="18.4" ry="9.5"/>
				<path class="st45" d="M697.9,466.4c7.2,3.7,7.2,9.6,0.1,13.4s-18.8,3.8-26,0.1c-3.6-1.8-5.4-4.2-5.4-6.7"/>
			</g>
			<path class="st45" d="M677.6,467.3c7.1-1.9,16.1-0.8,20.2,2.4s1.7,7.4-5.4,9.3c-7.1,1.9-16.1,0.8-20.2-2.4"/>
		</g>
	</g>
	<g>
		<circle class="st3" cx="483.2" cy="518.1" r="32.5"/>
		<g>
			<rect x="478.9" y="501.8" class="st47" width="8.5" height="32.5"/>
			<rect x="466.9" y="513.8" class="st47" width="32.5" height="8.5"/>
		</g>
	</g>
	<g>
		<g>
			<path class="st5" d="M956.7,104h13.7v-3.3c0-3.3,1.3-6.3,3.6-8.7c2.4-2.6,3.9-6,3.9-9.8"/>
		</g>
	</g>
	<g>
		<g>
			<circle class="st3" cx="213.9" cy="90.3" r="32.5"/>
		</g>
		<g>
			<path class="st48" d="M191.1,84.7c-1.2,0.2-2,1.4-1.8,2.7l1.2,5.8c1.3-0.3,2.5,0.6,2.7,1.8c0.3,1.3-0.6,2.5-1.8,2.7l1.2,5.8
				c0.2,1.2,1.4,2,2.7,1.8l28.4-5.7L219.5,79L191.1,84.7z"/>
			<path class="st28" d="M236.4,84l-1.2-5.8c-0.2-1.2-1.4-2-2.7-1.8l-13,2.6l4.1,20.7l13.1-2.6c1.2-0.2,2-1.4,1.8-2.7l-1.2-5.8
				c-1.3,0.3-2.5-0.6-2.7-1.8C234.4,85.5,235.2,84.3,236.4,84z"/>
			<path class="st49" d="M236.4,84l-1.2-5.8c-0.2-1.2-1.4-2-2.7-1.8l-13,2.6l4.1,20.7l13.1-2.6c1.2-0.2,2-1.4,1.8-2.7l-1.2-5.8
				c-1.3,0.3-2.5-0.6-2.7-1.8C234.4,85.5,235.2,84.3,236.4,84z"/>
			<path class="st35" d="M224.4,86.5l5.2-1"/>
			<path class="st35" d="M223.6,82.8l3.4-0.7"/>
			<path class="st50" d="M232.8,90.6l-7.3,1.5l0.5,2.6l7.3-1.5L232.8,90.6z"/>
			<path class="st28" d="M206.4,98.5c0.4-0.1,0.6-0.6,0.6-0.6l0.5-1.2c0.1,0,0.3,0,0.4,0c0.3-0.1,0.5-0.2,0.7-0.3
				c0-0.1-0.1-0.2-0.1-0.3c0-0.1,0-0.2,0-0.3c-0.2,0-0.4-0.1-0.6,0l0.5-1.2c0.2,0,0.3,0,0.5,0c0.3-0.1,0.5-0.2,0.7-0.3
				c0-0.1-0.1-0.2-0.1-0.3c0-0.1,0-0.2,0-0.3c-0.2-0.1-0.5-0.1-0.8,0l0.6-1.4c2-0.5,3.6-1,3.6-1c1.3-0.4,1.2-1.1,1.2-1.1
				s-0.2-0.7-1.5-0.5c0,0-1.7,0.2-3.7,0.5l-1.2-1.1c0.3-0.1,0.5-0.2,0.7-0.3c0-0.1-0.1-0.2-0.1-0.3c0-0.1,0-0.2,0-0.3
				c-0.2-0.1-0.5-0.1-0.8,0c-0.2,0-0.4,0.1-0.5,0.2l-0.9-0.8c0.2-0.1,0.5-0.2,0.6-0.3c0-0.1-0.1-0.2-0.1-0.3c0-0.1,0-0.2,0-0.3
				c-0.2-0.1-0.5-0.1-0.8,0c-0.2,0-0.3,0.1-0.4,0.1l-0.9-0.9c0,0-0.3-0.4-0.8-0.3s-0.7,0.1-0.6,0.7l2.6,4.4
				c-2.3,0.6-4.1,1.3-4.1,1.3l-1.6-1l-0.4,0.3l0.8,1.9v2l0.5,0.1l1-1.7c0,0,1.9-0.1,4.2-0.5l-0.5,5.1
				C205.7,98.7,205.9,98.6,206.4,98.5z"/>
		</g>
	</g>
	<path class="st36" d="M902.6,361.4c-1.1-8.1-12.8-14.4-12.8-14.4s-18.6-11.6-35.8-11.7c-56-1.2-36.9,59.8-34.5,70.2
		c2.5,10.4-10.4,14.6-24.5,25.4s-6.7,30.8-5,41.2c2.4,14.6-23,22.6-24.2,45.6c0.5,10.4-6.8,51.1,33.3,51.1"/>
	<path class="st36" d="M899,380.6"/>
</g>
</svg>
